<?xml version="1.0" encoding="UTF-8" ?>
<!DOCTYPE svg PUBLIC "-//W3C//DTD SVG 1.1//EN" "http://www.w3.org/Graphics/SVG/1.1/DTD/svg11.dtd">
<svg width="712pt" height="712pt" viewBox="0 0 712 712" version="1.1" xmlns="http://www.w3.org/2000/svg">
<g id="#fd6925ff">
<path fill="#fd6925" opacity="1.00" d=" M 0.00 0.00 L 712.00 0.00 L 712.00 712.00 L 0.00 712.00 L 0.00 0.00 M 263.97 90.30 C 278.72 128.50 293.59 166.66 308.35 204.86 C 321.36 200.77 334.89 198.40 348.52 197.67 C 348.47 156.76 348.52 115.85 348.49 74.94 C 319.75 75.64 291.14 80.91 263.97 90.30 M 366.09 75.03 C 366.16 115.96 366.11 156.88 366.11 197.81 C 379.47 198.71 392.71 201.25 405.43 205.43 C 420.16 167.23 434.83 129.01 449.55 90.81 C 422.76 81.30 394.50 76.00 366.09 75.03 M 175.08 140.97 C 202.68 171.22 230.24 201.50 257.87 231.73 C 268.30 223.45 279.81 216.57 291.94 211.09 C 277.17 172.92 262.34 134.78 247.59 96.61 C 221.33 107.55 196.84 122.66 175.08 140.97 M 465.93 97.17 C 451.19 135.38 436.48 173.60 421.82 211.84 C 434.24 217.61 445.98 224.88 456.53 233.63 C 484.19 203.45 511.84 173.27 539.47 143.06 C 517.52 124.09 492.61 108.56 465.93 97.17 M 109.46 221.09 C 146.11 239.40 182.78 257.64 219.45 275.90 C 226.38 263.99 235.03 253.14 244.68 243.33 C 217.11 213.14 189.58 182.91 162.03 152.71 C 141.10 172.59 123.35 195.80 109.46 221.09 M 552.40 154.96 C 524.73 185.10 497.14 215.31 469.47 245.45 C 478.88 255.26 487.18 266.14 493.88 277.98 C 530.56 259.79 567.17 241.47 603.82 223.21 C 590.26 198.03 572.87 174.93 552.40 154.96 M 353.40 234.39 C 337.55 243.55 321.69 252.70 305.84 261.85 C 303.96 262.98 301.91 263.88 300.27 265.36 C 299.21 266.65 299.62 268.47 299.48 270.01 C 299.53 288.88 299.48 307.76 299.50 326.63 C 282.65 336.40 265.76 346.10 248.90 355.86 C 247.29 356.57 246.37 358.22 246.62 359.97 C 246.63 379.98 246.61 399.99 246.64 420.01 C 246.41 421.70 247.48 423.13 248.96 423.83 C 266.13 433.74 283.30 443.66 300.47 453.57 C 302.01 454.69 304.09 454.84 305.63 453.63 C 322.44 443.93 339.24 434.23 356.05 424.53 C 372.83 434.21 389.61 443.90 406.39 453.58 C 407.69 454.43 409.46 454.96 410.86 453.96 C 428.27 444.01 445.60 433.91 463.00 423.92 C 464.50 423.21 465.67 421.79 465.49 420.04 C 465.52 400.04 465.50 380.03 465.49 360.03 C 465.75 358.21 464.79 356.59 463.15 355.84 C 446.29 346.11 429.47 336.32 412.56 326.68 C 412.42 307.10 412.54 287.51 412.50 267.93 C 412.89 264.86 409.45 263.83 407.40 262.50 C 391.13 253.15 374.90 243.73 358.64 234.36 C 357.08 233.17 354.95 233.23 353.40 234.39 M 101.50 236.76 C 89.15 263.02 80.92 291.21 77.24 320.00 C 118.04 323.66 158.83 327.33 199.62 330.96 C 201.81 317.38 205.74 304.08 211.37 291.53 C 174.77 273.23 138.11 255.03 101.50 236.76 M 501.71 293.71 C 507.01 306.16 510.74 319.26 512.76 332.63 C 553.50 328.78 594.25 324.94 634.99 321.08 C 631.49 292.72 623.58 264.92 611.64 238.95 C 574.97 257.15 538.36 275.48 501.71 293.71 M 75.55 337.52 C 73.69 366.50 76.24 395.77 83.28 423.95 C 122.65 412.67 162.02 401.38 201.38 390.06 C 198.42 376.42 197.14 362.39 197.83 348.43 C 157.07 344.85 116.32 341.14 75.55 337.52 M 514.38 350.13 C 514.70 363.40 513.68 376.71 510.79 389.67 C 550.16 400.99 589.53 412.31 628.91 423.60 C 635.73 395.87 638.43 367.09 636.57 338.58 C 595.85 342.45 555.11 346.28 514.38 350.13 M 88.11 440.86 C 96.89 468.70 110.16 495.09 127.10 518.86 C 159.72 494.14 192.27 469.34 224.87 444.60 C 217.05 432.92 210.67 420.28 206.11 406.99 C 166.78 418.29 127.44 429.57 88.11 440.86 M 506.14 406.61 C 501.87 419.06 496.09 430.98 488.93 442.02 C 521.59 466.71 554.30 491.35 586.99 516.00 C 603.06 492.90 615.67 467.37 624.13 440.52 C 584.80 429.20 545.47 417.93 506.14 406.61 M 448.68 484.31 C 470.16 519.20 491.72 554.04 513.25 588.89 C 537.16 572.66 558.60 552.78 576.53 530.11 C 543.91 505.44 511.21 480.86 478.57 456.20 C 469.83 466.78 459.77 476.24 448.68 484.31 M 137.77 532.84 C 155.89 555.26 177.59 574.70 201.53 590.74 C 223.29 556.04 244.65 521.08 266.24 486.27 C 254.88 478.39 244.53 469.06 235.54 458.55 C 202.92 483.28 170.36 508.08 137.77 532.84 M 396.20 509.15 C 403.75 549.41 411.36 589.66 418.94 629.92 C 446.83 623.52 473.72 612.79 498.37 598.24 C 476.89 563.43 455.40 528.62 433.89 493.83 C 422.03 500.49 409.35 505.68 396.20 509.15 M 281.21 495.47 C 259.65 530.28 238.14 565.12 216.60 599.94 C 241.75 614.36 269.15 624.83 297.50 630.87 C 305.09 590.66 312.65 550.44 320.23 510.23 C 306.65 507.04 293.51 502.04 281.21 495.47 M 337.54 513.24 C 329.97 553.49 322.37 593.73 314.82 633.98 C 343.58 638.22 372.99 638.00 401.68 633.31 C 394.14 593.08 386.53 552.86 378.96 512.64 C 365.25 514.65 351.30 514.82 337.54 513.24 Z" />
<path fill="#fd6925" opacity="1.00" d=" M 306.63 273.74 C 320.72 281.86 334.80 289.98 348.87 298.12 C 334.80 306.28 320.72 314.40 306.64 322.52 C 306.61 306.26 306.62 290.00 306.63 273.74 Z" />
<path fill="#fd6925" opacity="1.00" d=" M 363.22 298.13 C 377.26 290.01 391.30 281.89 405.37 273.80 C 405.38 290.02 405.38 306.24 405.36 322.46 C 391.31 314.37 377.27 306.24 363.22 298.13 Z" />
<path fill="#fd6925" opacity="1.00" d=" M 310.27 328.69 C 324.35 320.59 338.39 312.42 352.48 304.34 C 352.52 320.58 352.49 336.82 352.50 353.06 C 338.41 344.96 324.34 336.81 310.27 328.69 Z" />
<path fill="#fd6925" opacity="1.00" d=" M 359.63 304.36 C 373.71 312.44 387.76 320.56 401.80 328.70 C 387.75 336.83 373.70 344.95 359.63 353.04 C 359.63 336.81 359.61 320.58 359.63 304.36 Z" />
<path fill="#fd6925" opacity="1.00" d=" M 363.30 359.18 C 378.55 350.44 393.74 341.59 408.99 332.85 C 424.25 341.65 439.53 350.42 454.76 359.29 C 439.48 368.05 424.25 376.90 408.99 385.68 C 393.77 376.84 378.42 368.20 363.30 359.18 Z" />
<path fill="#fd6925" opacity="1.00" d=" M 253.76 365.48 C 269.02 374.26 284.26 383.07 299.50 391.88 C 299.49 409.49 299.52 427.10 299.48 444.71 C 284.23 435.93 268.98 427.13 253.74 418.31 C 253.77 400.70 253.73 383.09 253.76 365.48 Z" />
<path fill="#fd6925" opacity="1.00" d=" M 310.28 389.83 C 324.36 381.82 338.22 373.38 352.47 365.70 C 352.54 381.86 352.48 398.03 352.50 414.19 C 338.41 406.10 324.35 397.95 310.28 389.83 Z" />
<path fill="#fd6925" opacity="1.00" d=" M 412.50 391.94 C 427.78 383.10 443.07 374.27 458.37 365.46 C 458.39 383.07 458.37 400.68 458.38 418.29 C 443.10 427.14 427.82 435.96 412.52 444.76 C 412.48 427.15 412.51 409.55 412.50 391.94 Z" />
<path fill="#fd6925" opacity="1.00" d=" M 306.63 395.99 C 320.68 404.18 334.88 412.13 348.82 420.49 C 334.71 428.49 320.73 436.71 306.64 444.76 C 306.60 428.50 306.63 412.25 306.63 395.99 Z" />
</g>
<g id="#ffffffff">
<path fill="#ffffff" opacity="1.00" d=" M 263.97 90.30 C 291.14 80.91 319.75 75.64 348.49 74.94 C 348.52 115.85 348.47 156.76 348.52 197.67 C 334.89 198.40 321.36 200.77 308.35 204.86 C 293.59 166.66 278.72 128.50 263.97 90.30 Z" />
<path fill="#ffffff" opacity="1.00" d=" M 366.09 75.03 C 394.50 76.00 422.76 81.30 449.55 90.81 C 434.83 129.01 420.16 167.23 405.43 205.43 C 392.71 201.25 379.47 198.71 366.11 197.81 C 366.11 156.88 366.16 115.96 366.09 75.03 Z" />
<path fill="#ffffff" opacity="1.00" d=" M 175.08 140.97 C 196.84 122.66 221.33 107.55 247.59 96.61 C 262.34 134.78 277.17 172.92 291.94 211.09 C 279.81 216.57 268.30 223.45 257.87 231.73 C 230.24 201.50 202.68 171.22 175.08 140.97 Z" />
<path fill="#ffffff" opacity="1.00" d=" M 465.93 97.17 C 492.61 108.56 517.52 124.09 539.47 143.06 C 511.84 173.27 484.19 203.45 456.53 233.63 C 445.98 224.88 434.24 217.61 421.82 211.84 C 436.48 173.60 451.19 135.38 465.93 97.17 Z" />
<path fill="#ffffff" opacity="1.00" d=" M 109.46 221.09 C 123.35 195.80 141.10 172.59 162.03 152.71 C 189.58 182.91 217.11 213.14 244.68 243.33 C 235.03 253.14 226.38 263.99 219.45 275.90 C 182.78 257.64 146.11 239.40 109.46 221.09 Z" />
<path fill="#ffffff" opacity="1.00" d=" M 552.40 154.96 C 572.87 174.93 590.26 198.03 603.82 223.21 C 567.17 241.47 530.56 259.79 493.88 277.98 C 487.18 266.14 478.88 255.26 469.47 245.45 C 497.14 215.31 524.73 185.10 552.40 154.96 Z" />
<path fill="#ffffff" opacity="1.00" d=" M 353.40 234.39 C 354.95 233.23 357.08 233.17 358.64 234.36 C 374.90 243.73 391.13 253.15 407.40 262.50 C 409.45 263.83 412.89 264.86 412.50 267.93 C 412.54 287.51 412.42 307.10 412.56 326.68 C 429.47 336.32 446.29 346.11 463.15 355.84 C 464.79 356.59 465.75 358.21 465.49 360.03 C 465.50 380.03 465.52 400.04 465.49 420.04 C 465.67 421.79 464.50 423.21 463.00 423.92 C 445.60 433.91 428.27 444.01 410.86 453.96 C 409.46 454.96 407.69 454.43 406.39 453.58 C 389.61 443.90 372.83 434.21 356.05 424.53 C 339.24 434.23 322.44 443.93 305.63 453.63 C 304.09 454.84 302.01 454.69 300.47 453.57 C 283.30 443.66 266.13 433.74 248.96 423.83 C 247.48 423.13 246.41 421.70 246.64 420.01 C 246.61 399.99 246.63 379.98 246.62 359.97 C 246.37 358.22 247.29 356.57 248.90 355.86 C 265.76 346.10 282.65 336.40 299.50 326.63 C 299.48 307.76 299.53 288.88 299.48 270.01 C 299.62 268.47 299.21 266.65 300.27 265.36 C 301.91 263.88 303.96 262.98 305.84 261.85 C 321.69 252.70 337.55 243.55 353.40 234.39 M 306.63 273.74 C 306.62 290.00 306.61 306.26 306.64 322.52 C 320.72 314.40 334.80 306.28 348.87 298.12 C 334.80 289.98 320.72 281.86 306.63 273.74 M 363.22 298.13 C 377.27 306.24 391.31 314.37 405.36 322.46 C 405.38 306.24 405.38 290.02 405.37 273.80 C 391.30 281.89 377.26 290.01 363.22 298.13 M 310.27 328.69 C 324.34 336.81 338.41 344.96 352.50 353.06 C 352.49 336.82 352.52 320.58 352.48 304.34 C 338.39 312.42 324.35 320.59 310.27 328.69 M 359.63 304.36 C 359.61 320.58 359.63 336.81 359.63 353.04 C 373.70 344.95 387.75 336.83 401.80 328.70 C 387.76 320.56 373.71 312.44 359.63 304.36 M 363.30 359.18 C 378.42 368.20 393.77 376.84 408.99 385.68 C 424.25 376.90 439.48 368.05 454.76 359.29 C 439.53 350.42 424.25 341.65 408.99 332.85 C 393.74 341.59 378.55 350.44 363.30 359.18 M 253.76 365.48 C 253.73 383.09 253.77 400.70 253.74 418.31 C 268.98 427.13 284.23 435.93 299.48 444.71 C 299.52 427.10 299.49 409.49 299.50 391.88 C 284.26 383.07 269.02 374.26 253.76 365.48 M 310.28 389.83 C 324.35 397.95 338.41 406.10 352.50 414.19 C 352.48 398.03 352.54 381.86 352.47 365.70 C 338.22 373.38 324.36 381.82 310.28 389.83 M 412.50 391.94 C 412.51 409.55 412.48 427.15 412.52 444.76 C 427.82 435.96 443.10 427.14 458.38 418.29 C 458.37 400.68 458.39 383.07 458.37 365.46 C 443.07 374.27 427.78 383.10 412.50 391.94 M 306.63 395.99 C 306.63 412.25 306.60 428.50 306.64 444.76 C 320.73 436.71 334.71 428.49 348.82 420.49 C 334.88 412.13 320.68 404.18 306.63 395.99 Z" />
<path fill="#ffffff" opacity="1.00" d=" M 101.50 236.76 C 138.11 255.03 174.77 273.23 211.37 291.53 C 205.74 304.08 201.81 317.38 199.62 330.96 C 158.83 327.33 118.04 323.66 77.24 320.00 C 80.92 291.21 89.15 263.02 101.50 236.76 Z" />
<path fill="#ffffff" opacity="1.00" d=" M 501.71 293.71 C 538.36 275.48 574.97 257.15 611.64 238.95 C 623.58 264.92 631.49 292.72 634.99 321.08 C 594.25 324.94 553.50 328.78 512.76 332.63 C 510.74 319.26 507.01 306.16 501.71 293.71 Z" />
<path fill="#ffffff" opacity="1.00" d=" M 75.55 337.52 C 116.32 341.14 157.07 344.85 197.83 348.43 C 197.14 362.39 198.42 376.42 201.38 390.06 C 162.02 401.38 122.65 412.67 83.28 423.95 C 76.24 395.77 73.69 366.50 75.55 337.52 Z" />
<path fill="#ffffff" opacity="1.00" d=" M 514.38 350.13 C 555.11 346.28 595.85 342.45 636.57 338.58 C 638.43 367.09 635.73 395.87 628.91 423.60 C 589.53 412.31 550.16 400.99 510.79 389.67 C 513.68 376.71 514.70 363.40 514.38 350.13 Z" />
<path fill="#ffffff" opacity="1.00" d=" M 88.11 440.86 C 127.44 429.57 166.78 418.29 206.11 406.99 C 210.67 420.28 217.05 432.92 224.87 444.60 C 192.27 469.34 159.72 494.14 127.10 518.86 C 110.16 495.09 96.89 468.70 88.11 440.86 Z" />
<path fill="#ffffff" opacity="1.00" d=" M 506.14 406.61 C 545.47 417.93 584.80 429.20 624.13 440.52 C 615.67 467.37 603.06 492.90 586.99 516.00 C 554.30 491.35 521.59 466.71 488.93 442.02 C 496.09 430.98 501.87 419.06 506.14 406.61 Z" />
<path fill="#ffffff" opacity="1.00" d=" M 448.68 484.31 C 459.77 476.24 469.83 466.78 478.57 456.20 C 511.21 480.86 543.91 505.44 576.53 530.11 C 558.60 552.78 537.16 572.66 513.25 588.89 C 491.72 554.04 470.16 519.20 448.68 484.31 Z" />
<path fill="#ffffff" opacity="1.00" d=" M 137.77 532.84 C 170.36 508.08 202.92 483.28 235.54 458.55 C 244.53 469.06 254.88 478.39 266.24 486.27 C 244.65 521.08 223.29 556.04 201.53 590.74 C 177.59 574.70 155.89 555.26 137.77 532.84 Z" />
<path fill="#ffffff" opacity="1.00" d=" M 396.20 509.15 C 409.35 505.68 422.03 500.49 433.89 493.83 C 455.40 528.62 476.89 563.43 498.37 598.24 C 473.72 612.79 446.83 623.52 418.94 629.92 C 411.36 589.66 403.75 549.41 396.20 509.15 Z" />
<path fill="#ffffff" opacity="1.00" d=" M 281.21 495.47 C 293.51 502.04 306.65 507.04 320.23 510.23 C 312.65 550.44 305.09 590.66 297.50 630.87 C 269.15 624.83 241.75 614.36 216.60 599.94 C 238.14 565.12 259.65 530.28 281.21 495.47 Z" />
<path fill="#ffffff" opacity="1.00" d=" M 337.54 513.24 C 351.30 514.82 365.25 514.65 378.96 512.64 C 386.53 552.86 394.14 593.08 401.68 633.31 C 372.99 638.00 343.58 638.22 314.82 633.98 C 322.37 593.73 329.97 553.49 337.54 513.24 Z" />
</g>
</svg>
